<svg width="19" height="21" viewBox="0 0 19 21" fill="none" xmlns="http://www.w3.org/2000/svg">
<g id="wallet-43">
<g id="Group">
<path id="Vector" d="M16.4286 9.00001V4.42858H13H5.57143H2.71429C1.76743 4.42858 1 3.66115 1 2.71429V14.7143C1 15.9766 2.02343 17 3.28571 17H16.4286V12.4286" stroke="#647787" strokeMiterlimit="10" strokeLinecap="square"/>
<path id="Vector_2" d="M18.1429 12.4286H14.1429C13.196 12.4286 12.4286 11.6611 12.4286 10.7143C12.4286 9.76743 13.196 9 14.1429 9H18.1429V12.4286Z" stroke="#647787" strokeMiterlimit="10" strokeLinecap="square"/>
<circle id="Ellipse" cx="12.5" cy="15.5" r="5" fill="white" stroke="#647787"/>
<path id="Vector_3" d="M9.75 15.225L11.4 16.875L15.25 14.125" stroke="#647787"/>
<path id="Vector_4" d="M13 2.14286V1H2.71429C1.76743 1 1 1.76743 1 2.71429C1 3.66114 1.76743 4.42857 2.71429 4.42857" stroke="#647787" strokeMiterlimit="10" strokeLinecap="square"/>
</g>
</g>
</svg>
